{
  "accessors": [
    {
      "name": "texturedMesh.002-Mesh_0_positions",
      "componentType": 5126,
      "count": 27494,
      "min": [
        -6.751118183135986,
        13.149192810058594,
        -2.711651086807251
      ],
      "max": [
        6.634603023529053,
        20.056743621826172,
        1.9633170366287231
      ],
      "type": "VEC3",
      "bufferView": 0,
      "byteOffset": 0
    },
    {
      "name": "texturedMesh.002-Mesh_0_texcoords",
      "componentType": 5126,
      "count": 27494,
      "min": [
        0.0003480000013951212,
        0.00035099999513477087
      ],
      "max": [
        0.9986969828605652,
        0.9412540197372437
      ],
      "type": "VEC2",
      "bufferView": 1,
      "byteOffset": 0
    },
    {
      "name": "texturedMesh.002-Mesh_0_indices",
      "componentType": 5123,
      "count": 136239,
      "min": [
        0
      ],
      "max": [
        27493
      ],
      "type": "SCALAR",
      "bufferView": 2,
      "byteOffset": 0
    }
  ],
  "asset": {
    "generator": "obj2gltf",
    "version": "2.0"
  },
  "buffers": [
    {
      "name": "example",
      "byteLength": 822360,
      "uri": "data:application/octet-stream;base64,"
    }
  ],
  "bufferViews": [
    {
      "name": "bufferView_0",
      "buffer": 0,
      "byteLength": 329928,
      "byteOffset": 0,
      "byteStride": 12,
      "target": 34962
    },
    {
      "name": "bufferView_1",
      "buffer": 0,
      "byteLength": 219952,
      "byteOffset": 329928,
      "byteStride": 8,
      "target": 34962
    },
    {
      "name": "bufferView_2",
      "buffer": 0,
      "byteLength": 272480,
      "byteOffset": 549880,
      "target": 34963
    }
  ],
  "materials": [
    {
      "name": "texturedMesh_tex0",
      "pbrMetallicRoughness": {
        "baseColorFactor": [
          0.5,
          0.5,
          0.5,
          1
        ],
        "metallicFactor": 0,
        "roughnessFactor": 1
      },
      "emissiveFactor": [
        0,
        0,
        0
      ],
      "alphaMode": "OPAQUE",
      "doubleSided": false
    }
  ],
  "meshes": [
    {
      "name": "texturedMesh.002-Mesh",
      "primitives": [
        {
          "attributes": {
            "POSITION": 0,
            "TEXCOORD_0": 1
          },
          "indices": 2,
          "material": 0,
          "mode": 4
        }
      ]
    }
  ],
  "nodes": [
    {
      "name": "texturedMesh.002",
      "mesh": 0
    }
  ],
  "scene": 0,
  "scenes": [
    {
      "nodes": [
        0
      ]
    }
  ]
}
